<?xml version="1.0" encoding="UTF-8" standalone="no"?>
<svg width="129px" height="18px" viewBox="0 0 129 18" version="1.1" xmlns="http://www.w3.org/2000/svg" xmlns:xlink="http://www.w3.org/1999/xlink" xmlns:sketch="http://www.bohemiancoding.com/sketch/ns">
    <!-- Generator: Sketch 3.5.2 (25235) - http://www.bohemiancoding.com/sketch -->
    <title>Page 1</title>
    <desc>Created with Sketch.</desc>
    <defs>
        <path id="path-1" d="M0,0.622 L128.544,0.622 L128.544,18 L0,18 L0,0.622 Z"></path>
    </defs>
    <g id="Page-1" stroke="none" stroke-width="1" fill="none" fill-rule="evenodd" sketch:type="MSPage">
        <g sketch:type="MSLayerGroup">
            <mask id="mask-2" sketch:name="Clip 2" fill="white">
                <use xlink:href="#path-1"></use>
            </mask>
            <g id="Clip-2"></g>
            <path d="M124.6792,9.3584 C124.6792,12.3344 122.6402,14.3754 119.6152,14.3754 L116.7592,14.3754 L116.7592,4.2454 L119.6152,4.2454 C122.6402,4.2454 124.6792,6.3344 124.6792,9.3104 L124.6792,9.3584 Z M119.6152,0.9094 L113.0622,0.9094 L113.0622,17.7114 L119.6152,17.7114 C124.8962,17.7114 128.5442,14.0394 128.5442,9.3104 L128.5442,9.2624 C128.5442,4.5334 124.8962,0.9094 119.6152,0.9094 L119.6152,0.9094 Z M105.9842,6.6944 C105.9842,8.1104 104.9512,9.0704 103.1522,9.0704 L99.4082,9.0704 L99.4082,4.2454 L103.0792,4.2454 C104.8802,4.2454 105.9842,5.0614 105.9842,6.6464 L105.9842,6.6944 Z M109.7282,6.5024 L109.7282,6.4544 C109.7282,4.8694 109.2242,3.5494 108.2882,2.6134 C107.1842,1.5094 105.5282,0.9094 103.3922,0.9094 L95.7102,0.9094 L95.7102,17.7114 L99.4082,17.7114 L99.4082,12.3344 L102.3122,12.3344 L105.9112,17.7114 L110.2322,17.7114 L106.1282,11.7114 C108.2642,10.9184 109.7282,9.2144 109.7282,6.5024 L109.7282,6.5024 Z M81.9352,10.6784 L84.1672,5.2304 L86.4002,10.6784 L81.9352,10.6784 Z M82.5112,0.7894 L75.3112,17.7114 L79.0792,17.7114 L80.6152,13.9424 L87.7202,13.9424 L89.2552,17.7114 L93.1202,17.7114 L85.9192,0.7894 L82.5112,0.7894 Z M70.6802,9.3584 C70.6802,12.2384 68.6162,14.5904 65.6402,14.5904 C62.6632,14.5904 60.5512,12.1904 60.5512,9.3104 L60.5512,9.2624 C60.5512,6.3824 62.6162,4.0294 65.5912,4.0294 C68.5682,4.0294 70.6802,6.4304 70.6802,9.3104 L70.6802,9.3584 Z M65.6402,0.6214 C60.4552,0.6214 56.6872,4.5334 56.6872,9.3104 L56.6872,9.3584 C56.6872,14.1344 60.4082,18.0004 65.5912,18.0004 C70.7772,18.0004 74.5442,14.0864 74.5442,9.3104 L74.5442,9.2624 C74.5442,4.4854 70.8242,0.6214 65.6402,0.6214 L65.6402,0.6214 Z M50.7122,12.6464 C50.7122,13.8944 49.7282,14.4704 48.0962,14.4704 L43.7032,14.4704 L43.7032,10.7744 L47.9762,10.7744 C49.8722,10.7744 50.7122,11.4704 50.7122,12.5984 L50.7122,12.6464 Z M43.7032,4.1504 L47.3522,4.1504 C48.9122,4.1504 49.7762,4.7744 49.7762,5.8784 L49.7762,5.9264 C49.7762,7.1744 48.7442,7.7024 47.1122,7.7024 L43.7032,7.7024 L43.7032,4.1504 Z M51.2412,8.9264 C52.4402,8.2544 53.4492,7.1984 53.4492,5.3024 L53.4492,5.2544 C53.4492,4.1014 53.0642,3.1654 52.2962,2.3984 C51.3362,1.4384 49.8242,0.9094 47.9042,0.9094 L40.1032,0.9094 L40.1032,17.7114 L48.0962,17.7114 C51.8882,17.7114 54.3852,16.1744 54.3852,13.1024 L54.3852,13.0544 C54.3852,10.7984 53.1842,9.6704 51.2412,8.9264 L51.2412,8.9264 Z M32.4252,11.2544 L24.5522,0.9094 L21.1432,0.9094 L21.1432,17.7114 L24.7922,17.7114 L24.7922,7.0304 L32.9292,17.7114 L36.0732,17.7114 L36.0732,0.9094 L32.4252,0.9094 L32.4252,11.2544 Z M13.9932,9.3584 C13.9932,12.2384 11.9292,14.5904 8.9522,14.5904 C5.9762,14.5904 3.8642,12.1904 3.8642,9.3104 L3.8642,9.2624 C3.8642,6.3824 5.9282,4.0294 8.9052,4.0294 C11.8812,4.0294 13.9932,6.4304 13.9932,9.3104 L13.9932,9.3584 Z M8.9522,0.6214 C3.7682,0.6214 0.000199999995,4.5334 0.000199999995,9.3104 L0.000199999995,9.3584 C0.000199999995,14.1344 3.7202,18.0004 8.9052,18.0004 C14.0892,18.0004 17.8572,14.0864 17.8572,9.3104 L17.8572,9.2624 C17.8572,4.4854 14.1372,0.6214 8.9522,0.6214 L8.9522,0.6214 Z" id="Fill-1" fill="#FFFFFF" sketch:type="MSShapeGroup" mask="url(#mask-2)"></path>
        </g>
    </g>
</svg>